<?xml version="1.0" encoding="UTF-8"?>
<svg width="686px" height="393px" viewBox="0 0 686 393" version="1.1" xmlns="http://www.w3.org/2000/svg" xmlns:xlink="http://www.w3.org/1999/xlink">
    <!-- Generator: Sketch 50 (54983) - http://www.bohemiancoding.com/sketch -->
    <title>Group 2 Copy</title>
    <desc>Created with Sketch.</desc>
    <defs></defs>
    <g id="Page-1" stroke="none" stroke-width="1" fill="none" fill-rule="evenodd" opacity="0.5">
        <g id="Desktop-HD" transform="translate(-743.000000, -2823.000000)" fill="#814C35">
            <g id="Group-2-Copy" transform="translate(743.000000, 2823.000000)">
                <path d="M536.199987,282 C626.299212,183.508558 684.844665,49.7469904 686,47.0894195 C682.660954,46.830455 459.215721,29.8449265 330.744975,139.896377 C325.58617,144.320002 320.550093,148.828532 315.60712,153.434705 C312.763218,185.38499 308.670877,217.432916 303,248.903479 C317.460735,246.046378 331.896078,243.927963 346.17907,242.616159 C384.394007,239.088297 423.176031,244.407684 460.459929,254.583718 C485.949249,261.546044 511.307378,270.894241 536.199987,282" id="Fill-1"></path>
                <path d="M291.231985,0 C288.262308,1.84172356 89.1497048,124.799898 26.3240658,297.118787 C15.0053538,328.154772 6.43995678,359.636472 0,390.390732 C7.021165,392.829544 18.4883608,396 18.4883608,396 L58.1293069,365.296198 C120.708887,316.818501 196.007169,277.658749 271.695752,256.928847 C297.638003,128.823938 291.384711,2.72894656 291.231985,0" id="Fill-3"></path>
                <path d="M76,398.740445 C110.078416,372.288031 220.940252,293.957413 352.508443,281.957685 C510.024194,267.597563 694.254406,419.445444 697,421.734312 C694.144243,423.800184 502.312803,561.733935 345.856309,535.740136 C215.173657,514.02955 108.625115,427.637404 76,398.740445" id="Fill-5"></path>
            </g>
        </g>
    </g>
</svg>