<?xml version="1.0" encoding="UTF-8"?>
<svg version="1.1" viewBox="0 0 133 24" xmlns="http://www.w3.org/2000/svg">
<title>payement icons</title>
<desc>Created with Sketch.</desc>
<defs>
<linearGradient id="a" y1="50%" y2="50%">
<stop stop-color="#1D1C45" offset="0"/>
<stop stop-color="#174489" offset="1"/>
</linearGradient>
</defs>
<g fill="none" fill-rule="evenodd">
<rect x=".5" y=".5" width="37" height="23" fill="#fff" stroke="#E7E7E7"/>
<path d="m18.265 8.1415l-1.6552 7.7375h-2.0019l1.6559-7.7375h2.0012zm8.4213 4.9959l1.0537-2.9052 0.60655 2.9052h-1.6603zm2.2336 2.7416h1.8513l-1.616-7.7375h-1.7084c-0.3843 0-0.70828 0.22329-0.85209 0.56745l-3.0034 7.17h2.1013l0.41756-1.156h2.5678l0.24186 1.156zm-5.2246-2.5264c0.0089452-2.0419-2.8237-2.1546-2.8042-3.0671 0.0061929-0.27742 0.27042-0.57238 0.84899-0.64795 0.28636-0.037386 1.0773-0.066401 1.9733 0.34611l0.35173-1.6406c-0.48201-0.17489-1.1014-0.34301-1.8728-0.34301-1.9783 0-3.371 1.0519-3.3821 2.5575-0.013188 1.1145 0.99384 1.7355 1.7526 2.106 0.77949 0.37914 1.041 0.62238 1.0381 0.9615-0.0058488 0.5194-0.62204 0.7483-1.1981 0.75725-1.0063 0.015711-1.5904-0.27203-2.0558-0.48889l-0.3624 1.6956c0.46722 0.21469 1.3305 0.40185 2.2259 0.41102 2.1029 0 3.4782-1.0383 3.4847-2.6474zm-8.2905-5.211l-3.2431 7.7375h-2.1158l-1.5959-6.1751c-0.096906-0.38017-0.18097-0.51974-0.47559-0.67961-0.48109-0.26136-1.2756-0.50632-1.9746-0.65851l0.047134-0.22432h3.4062c0.43384 0 0.82445 0.28866 0.92296 0.78878l0.84291 4.4775 2.0833-5.2663h2.1025z" fill="url(#a)"/>
<rect x="95.5" y=".5" width="37" height="23" fill="#fff" stroke="#E7E7E7"/>
<g transform="translate(101 7)" fill-rule="nonzero">
<path d="m8.6939 4.3481c0 2.4008-1.9458 4.3481-4.3466 4.3481-2.4012 0-4.347-1.9472-4.347-4.3481 0-2.4016 1.9458-4.3481 4.347-4.3481 2.4008 0 4.3466 1.9465 4.3466 4.3481" fill="#EE312B"/>
<path d="m4.3451 6.2106c-0.972-2.2043-1.6852-4.2638-1.6852-4.2638h-1.4904s0.90684 2.6435 2.592 5.949h1.1668c1.6855-3.3055 2.5924-5.949 2.5924-5.949h-1.4904s-0.7128 2.0596-1.6852 4.2638" fill="#fff"/>
<path d="m25.153 5.9364h-2.9164s0.06444 0.97236 1.3612 0.97236c0.64764 0 1.2956-0.19476 1.2956-0.19476l0.13032 1.0375s-0.64836 0.2592-1.5563 0.2592c-1.2953 0-2.462-0.64836-2.462-2.4631 0-1.4263 0.90684-2.3335 2.2032-2.3335 1.9444 0 2.074 1.9447 1.9444 2.7223m-2.0088-1.8151c-0.84312 0-0.90756 0.90756-0.90756 0.90756h1.8144s-0.06444-0.90756-0.90684-0.90756" fill="#004266"/>
<path d="m15.135 4.3952l0.1944-1.0368s-1.5016-0.45612-2.722 0.3888v4.1479h1.2964l-3.6e-4 -3.37c0.51876-0.38916 1.2316-0.12996 1.2316-0.12996" fill="#004266"/>
<path d="m11.592 5.9364h-2.9164s0.06444 0.97236 1.3612 0.97236c0.64764 0 1.2956-0.19476 1.2956-0.19476l0.13032 1.0375s-0.64836 0.2592-1.5556 0.2592c-1.2956 0-2.4628-0.64836-2.4628-2.4631 0-1.4263 0.90684-2.3335 2.2032-2.3335 1.9444 0 2.074 1.9447 1.9444 2.7223m-2.0088-1.8151c-0.84312 0-0.90756 0.90756-0.90756 0.90756h1.8144s-0.06444-0.90756-0.90684-0.90756" fill="#004266"/>
<path d="m18.281 6.3408c-0.64836-1.5559-0.97164-3.0218-0.97164-3.0218l-1.2967 3.6e-4s0.64836 2.5027 1.7503 4.5756h1.0357c1.1023-2.0729 1.7503-4.5749 1.7503-4.5749h-1.2964s-0.32364 1.4648-0.97164 3.0208" fill="#004266"/>
</g>
<g transform="translate(47)" fill="#fff" stroke="#E7E7E7">
<rect x=".5" y=".5" width="37" height="23"/>
</g>
<g transform="translate(56.5 4.5)" fill-rule="nonzero">
<path d="m3.7079 14.528v-0.94215c0.011108-0.16029-0.047294-0.31761-0.16031-0.43183s-0.26971-0.17428-0.43011-0.16487c-0.21138-0.013858-0.41355 0.088431-0.5276 0.26694-0.10398-0.17319-0.29438-0.27562-0.4962-0.26694-0.17572-0.0088834-0.34301 0.075955-0.43967 0.22298v-0.18529h-0.32661v1.5012h0.32975v-0.82595c-0.014202-0.10394 0.01873-0.20879 0.089807-0.28594 0.071077-0.077152 0.17288-0.11855 0.27763-0.1129 0.21669 0 0.32661 0.14132 0.32661 0.3957v0.83537h0.32975v-0.83223c-0.013619-0.10382 0.019514-0.20833 0.090459-0.28534 0.070945-0.077009 0.17239-0.11858 0.27698-0.1135 0.22298 0 0.32975 0.14132 0.32975 0.3957v0.83537l0.32975-0.0062809zm4.8788-1.5012h-0.53702v-0.45537h-0.32975v0.45537h-0.29835v0.29835h0.30463v0.69091c0 0.3486 0.13504 0.55587 0.52132 0.55587 0.14431 4.848e-4 0.28583-0.039794 0.40826-0.1162l-0.094215-0.2795c-0.087588 0.052244-0.187 0.081418-0.28893 0.084793-0.15702 0-0.21669-0.1005-0.21669-0.25124v-0.68463h0.53388l-0.0031405-0.29835zm2.7856-0.037686c-0.16222-0.0047708-0.31405 0.079581-0.3957 0.21983v-0.18215h-0.32347v1.5012h0.32661v-0.84165c0-0.2481 0.10678-0.38628 0.31405-0.38628 0.069858-9.556e-4 0.13922 0.01185 0.20413 0.037686l0.1005-0.31405c-0.074591-0.026684-0.15318-0.04049-0.2324-0.040826l0.006281 0.006281zm-4.2114 0.15702c-0.18488-0.10992-0.39744-0.16442-0.6124-0.15702-0.38 0-0.6281 0.18215-0.6281 0.4805 0 0.24496 0.18215 0.3957 0.51818 0.44281l0.15702 0.021983c0.17901 0.025124 0.2638 0.072231 0.2638 0.15702 0 0.1162-0.11934 0.18215-0.34231 0.18215-0.17935 0.0051916-0.35524-0.050118-0.49934-0.15702l-0.15702 0.25438c0.19025 0.13284 0.41813 0.20109 0.65008 0.19471 0.43339 0 0.68463-0.20413 0.68463-0.48992 0-0.28579-0.19785-0.40198-0.52446-0.44909l-0.15702-0.021983c-0.14132-0.018843-0.25438-0.047108-0.25438-0.1476 0-0.1005 0.10678-0.17587 0.28579-0.17587 0.16545 0.001922 0.32765 0.046255 0.47107 0.12876l0.14446-0.2638zm8.7479-0.15702c-0.16222-0.0047708-0.31405 0.079581-0.3957 0.21983v-0.18215h-0.32347v1.5012h0.32661v-0.84165c0-0.2481 0.10678-0.38628 0.31405-0.38628 0.069858-9.556e-4 0.13922 0.01185 0.20413 0.037686l0.1005-0.31405c-0.074591-0.026684-0.15318-0.04049-0.2324-0.040826l0.006281 0.006281zm-4.2083 0.78512c-0.0078547 0.21331 0.07454 0.42005 0.22696 0.56948 0.15242 0.14943 0.36075 0.22772 0.57387 0.21564 0.1961 0.0099773 0.38883-0.053891 0.54017-0.17901l-0.15702-0.2638c-0.11291 0.086098-0.25058 0.13346-0.39256 0.13504-0.25034-0.020256-0.44319-0.22933-0.44319-0.4805 0-0.25116 0.19284-0.46024 0.44319-0.4805 0.14198 0.0015818 0.27966 0.048943 0.39256 0.13504l0.15702-0.2638c-0.15134-0.12512-0.34406-0.18899-0.54017-0.17901-0.21311-0.012077-0.42144 0.066209-0.57387 0.21564-0.15242 0.14943-0.23482 0.35618-0.22696 0.56948v0.0062809zm3.0588 0v-0.74744h-0.32661v0.18215c-0.11252-0.14478-0.28783-0.22659-0.47107-0.21983-0.43361 0-0.78512 0.35151-0.78512 0.78512 0 0.43361 0.35151 0.78512 0.78512 0.78512 0.18324 0.0067598 0.35855-0.07505 0.47107-0.21983v0.18215h0.32661v-0.74744zm-1.2154 0c0.014524-0.24642 0.22336-0.43604 0.47004-0.42678 0.24668 0.0092589 0.44071 0.214 0.43672 0.46082-0.0039894 0.24682-0.20454 0.44518-0.45139 0.44646-0.12569 0.0015904-0.24634-0.049388-0.3328-0.14063s-0.1309-0.21444-0.12257-0.33987zm-3.9413-0.78512c-0.43361 0.0060705-0.7802 0.3625-0.77413 0.79612s0.3625 0.7802 0.79612 0.77413c0.22592 0.011596 0.44809-0.061154 0.62339-0.20413l-0.15702-0.24182c-0.12399 0.09944-0.2776 0.1547-0.43653 0.15702-0.22449 0.019306-0.42356-0.14357-0.44909-0.36744h1.1149v-0.12562c0-0.47107-0.29207-0.78512-0.71289-0.78512l-0.0047108-0.0031405zm0 0.29207c0.098706-0.0021044 0.1942 0.0351 0.26547 0.10342 0.071269 0.068324 0.11247 0.16217 0.11453 0.26087h-0.78512c0.011828-0.20966 0.18898-0.37146 0.39884-0.3643h0.006281zm8.1826 0.4962v-1.3536h-0.31405v0.78512c-0.11252-0.14478-0.28783-0.22659-0.47107-0.21983-0.43361 0-0.78512 0.35151-0.78512 0.78512 0 0.43361 0.35151 0.78512 0.78512 0.78512 0.18324 0.0067598 0.35855-0.07505 0.47107-0.21983v0.18215h0.31405v-0.7443zm0.54488 0.53231c0.020415-2.501e-4 0.040683 0.0034835 0.059669 0.010992 0.018033 0.0073588 0.03454 0.018008 0.048678 0.031405 0.013798 0.013539 0.024977 0.029509 0.032975 0.047107 0.016073 0.037065 0.016073 0.079133 0 0.1162-0.0079984 0.017598-0.019178 0.033568-0.032975 0.047107-0.014138 0.013397-0.030644 0.024046-0.048678 0.031405-0.018799 0.0082948-0.039122 0.012574-0.059669 0.012562-0.060761-4.579e-4 -0.1158-0.03593-0.14132-0.091074-0.015887-0.037104-0.015887-0.079095 0-0.1162 0.0079984-0.017598 0.019178-0.033568 0.032975-0.047107 0.014138-0.013397 0.030644-0.024046 0.048678-0.031405 0.020452-0.0081357 0.042387-0.011881 0.06438-0.010992h-0.0047107zm0 0.26537c0.015673 9.52e-5 0.031189-0.0031151 0.045537-0.0094215 0.01351-0.0060317 0.025762-0.014555 0.036116-0.025124 0.040716-0.044423 0.040716-0.1126 0-0.15702-0.010329-0.010598-0.022587-0.019126-0.036116-0.025124-0.014362-0.006262-0.029869-0.0094703-0.045537-0.0094215-0.015654 8.27e-5 -0.031135 0.0032856-0.045537 0.0094215-0.014108 0.0057848-0.02692 0.014326-0.037686 0.025124-0.040716 0.044424-0.040716 0.1126 0 0.15702 0.010792 0.010766 0.023598 0.019302 0.037686 0.025124 0.015842 0.0068318 0.033007 0.01005 0.050248 0.0094215h-0.0047107zm0.0094215-0.18686c0.014658-7.109e-4 0.029103 0.0037336 0.040826 0.012562 0.0097517 0.0080704 0.015013 0.020348 0.014132 0.032975 4.558e-4 0.010545-0.0035314 0.020798-0.010992 0.028264-0.0091014 0.0082668-0.020712 0.013243-0.032975 0.014132l0.045537 0.051818h-0.036116l-0.042397-0.051818h-0.014132v0.051818h-0.029835v-0.13818l0.06595-0.0015702zm-0.034546 0.026694v0.037686h0.034546c0.0061473 0.0018327 0.012696 0.0018327 0.018843 0 0.0022396-0.0044446 0.0022396-0.0096877 0-0.014132 0.0022396-0.0044445 0.0022396-0.0096877 0-0.014132-0.0061473-0.0018328-0.012696-0.0018328-0.018843 0l-0.034546-0.0094215zm-1.7273-0.63752c0.014524-0.24642 0.22336-0.43604 0.47004-0.42678 0.24668 0.0092589 0.44071 0.214 0.43672 0.46082-0.0039894 0.24682-0.20454 0.44518-0.45139 0.44646-0.12569 0.0015904-0.24634-0.049388-0.3328-0.14063s-0.1309-0.21444-0.12257-0.33987zm-11.028 0v-0.75058h-0.32661v0.18215c-0.11252-0.14478-0.28783-0.22659-0.47107-0.21983-0.43361 0-0.78512 0.35151-0.78512 0.78512 0 0.43361 0.35151 0.78512 0.78512 0.78512 0.18324 0.0067598 0.35855-0.07505 0.47107-0.21983v0.18215h0.32661v-0.7443zm-1.2154 0c0.014524-0.24642 0.22336-0.43604 0.47004-0.42678 0.24668 0.0092589 0.44071 0.214 0.43672 0.46082-0.0039894 0.24682-0.20454 0.44518-0.45139 0.44646-0.12623 0.0024782-0.24772-0.048111-0.33488-0.13945-0.087164-0.091343-0.13201-0.21506-0.12363-0.34104h0.0031405z" fill="#231F20"/>
<g transform="translate(.35537 .35537)">
<rect x="6.6971" y="1.2326" width="4.9463" height="8.8892" fill="#FF5F00"/>
<path d="m7.0112 5.678c-0.0018493-1.7349 0.79436-3.3742 2.1591-4.4454-2.3177-1.8215-5.6461-1.5562-7.6459 0.60949-1.9999 2.1657-1.9999 5.5045 0 7.6702 1.9999 2.1657 5.3282 2.431 7.6459 0.60949-1.3643-1.0708-2.1605-2.7095-2.1591-4.4438z" fill="#EB001B"/>
<path d="m18.317 5.678c-5.04e-5 2.1643-1.2359 4.1386-3.1826 5.0844-1.9467 0.9458-4.2626 0.69703-5.9641-0.64064 1.3637-1.0717 2.1599-2.7102 2.1599-4.4446 0-1.7344-0.79622-3.3729-2.1599-4.4446 1.7015-1.3377 4.0173-1.5864 5.9641-0.64064 1.9467 0.9458 3.1826 2.9201 3.1826 5.0844v0.0015702z" fill="#F79E1B"/>
</g>
</g>
</g>
</svg>
